<?xml version="1.0" encoding="UTF-8"?>
<svg width="24px" height="23px" viewBox="0 0 24 23" version="1.1" xmlns="http://www.w3.org/2000/svg" xmlns:xlink="http://www.w3.org/1999/xlink">
    <!-- Generator: Sketch 48.1 (47250) - http://www.bohemiancoding.com/sketch -->
    <title>Slice 1</title>
    <desc>Created with Sketch.</desc>
    <defs></defs>
    <g id="Page-1" stroke="none" stroke-width="1" fill="none" fill-rule="evenodd">
        <g id="gitlab_logo" fill-rule="nonzero">
            <path d="M23.9297689,12.6270995 L22.5882566,8.49845584 L19.9295715,0.315744263 C19.7928173,-0.105226669 19.1971887,-0.105226669 19.0603697,0.315744263 L16.4016195,8.49845584 L7.57297792,8.49845584 L4.9141629,0.315744263 C4.77740917,-0.105226669 4.18178008,-0.105226669 4.04496112,0.315744263 L1.38627607,8.49845584 L0.0448289266,12.6270995 C-0.0775811744,13.0036758 0.0565117462,13.4162088 0.376815716,13.6489568 L11.9872666,22.0844067 L23.5977822,13.6489568 C23.9180861,13.4162088 24.0521139,13.0036758 23.9297689,12.6270995" id="Shape" fill="#FC6D26"></path>
            <polygon id="Shape" fill="#E24329" points="11.9872924 22.0844067 16.4016457 8.49845584 7.57293898 8.49845584"></polygon>
            <polygon id="Shape" fill="#FC6D26" points="11.9872924 22.0843805 7.57293898 8.49849479 1.38630187 8.49849479"></polygon>
            <path d="M1.38630187,8.49847531 L0.0447899832,12.627119 C-0.0775552295,13.0036952 0.0564728027,13.4162282 0.376841515,13.6489111 L11.9872924,22.084361 L1.38630187,8.49847531 Z" id="Shape" fill="#FCA326"></path>
            <path d="M1.38630187,8.49848846 L7.57293898,8.49848846 L4.91418919,0.315776878 C4.77737023,-0.105258797 4.18174114,-0.105258797 4.04498741,0.315776878 L1.38630187,8.49848846 Z" id="Shape" fill="#E24329"></path>
            <polygon id="Shape" fill="#FC6D26" points="11.9872924 22.0843805 16.4016457 8.49849479 22.5882824 8.49849479"></polygon>
            <path d="M22.588276,8.49847531 L23.9297884,12.627119 C24.0521333,13.0036952 23.9181056,13.4162282 23.5977364,13.6489111 L11.987286,22.084361 L22.588276,8.49847531 Z" id="Shape" fill="#FCA326"></path>
            <path d="M22.588276,8.49848846 L16.4016389,8.49848846 L19.0603892,0.315776878 C19.1972077,-0.105258797 19.7928368,-0.105258797 19.929591,0.315776878 L22.588276,8.49848846 Z" id="Shape" fill="#E24329"></path>
        </g>
    </g>
</svg>